<?xml version="1.0" standalone="no"?>
<!DOCTYPE svg PUBLIC "-//W3C//DTD SVG 20010904//EN"
        "http://www.w3.org/TR/2001/REC-SVG-20010904/DTD/svg10.dtd">
<svg version="1.0" xmlns="http://www.w3.org/2000/svg"
     width="512.000000pt" height="512.000000pt" viewBox="0 0 512.000000 512.000000"
     preserveAspectRatio="xMidYMid meet">

    <g transform="translate(0.000000,512.000000) scale(0.100000,-0.100000)"
       fill="#3366cc" stroke="none">
        <path d="M1438 4435 c-226 -36 -414 -139 -553 -302 -115 -135 -183 -297 -205
-488 -14 -128 -13 -2022 1 -2157 21 -193 79 -344 184 -476 114 -143 293 -256
490 -310 l100 -27 1110 0 1110 0 99 27 c359 99 597 355 658 708 10 58 13 318
13 1160 0 1009 -1 1091 -18 1169 -24 113 -59 202 -112 286 -123 197 -301 327
-540 392 l-100 28 -1075 2 c-868 1 -1092 -1 -1162 -12z m1444 -463 c137 -36
277 -99 366 -167 154 -116 263 -319 273 -506 l3 -54 -261 -3 -261 -2 -11 50
c-22 103 -79 173 -182 225 -183 93 -448 56 -567 -79 -46 -53 -64 -102 -64
-172 1 -74 18 -118 68 -174 70 -77 190 -121 364 -135 464 -37 811 -238 935
-542 80 -197 68 -477 -29 -677 -125 -255 -373 -425 -716 -487 -118 -22 -497
-19 -630 5 -171 30 -430 116 -430 142 0 9 73 329 147 644 48 207 87 329 134
422 16 32 29 61 29 66 0 5 -24 25 -52 44 -262 174 -379 392 -365 677 6 131 24
199 84 321 39 79 60 109 132 180 99 98 191 154 326 199 150 50 230 61 420 57
150 -4 184 -8 287 -34z"/>
        <path d="M2520 2689 c-164 -32 -282 -181 -267 -338 7 -78 42 -147 105 -208
l53 -51 -64 -234 -63 -233 289 -3 c160 -1 291 -1 293 1 2 1 -26 108 -61 236
l-64 233 54 50 c75 68 107 136 108 230 1 112 -43 195 -139 264 -66 47 -165 68
-244 53z"/>
    </g>
</svg>
